<?xml version="1.0" encoding="UTF-8" standalone="no"?>
<svg
   xmlns:dc="http://purl.org/dc/elements/1.1/"
   xmlns:cc="http://creativecommons.org/ns#"
   xmlns:rdf="http://www.w3.org/1999/02/22-rdf-syntax-ns#"
   xmlns:svg="http://www.w3.org/2000/svg"
   xmlns="http://www.w3.org/2000/svg"
   xmlns:sodipodi="http://sodipodi.sourceforge.net/DTD/sodipodi-0.dtd"
   xmlns:inkscape="http://www.inkscape.org/namespaces/inkscape"
   version="1.1"
   x="0px"
   y="0px"
   viewBox="0 0 100 125"
   enable-background="new 0 0 100 100"
   xml:space="preserve"
   id="svg3167"
   inkscape:version="0.48.5 r10040"
   width="100%"
   height="100%"
   sodipodi:docname="shop.svg"><metadata
     id="metadata3293"><rdf:RDF><cc:Work
         rdf:about=""><dc:format>image/svg+xml</dc:format><dc:type
           rdf:resource="http://purl.org/dc/dcmitype/StillImage" /></cc:Work></rdf:RDF></metadata><defs
     id="defs3291" /><sodipodi:namedview
     pagecolor="#ffffff"
     bordercolor="#666666"
     borderopacity="1"
     objecttolerance="10"
     gridtolerance="10"
     guidetolerance="10"
     inkscape:pageopacity="0"
     inkscape:pageshadow="2"
     inkscape:window-width="1855"
     inkscape:window-height="1056"
     id="namedview3289"
     showgrid="false"
     inkscape:zoom="7.272"
     inkscape:cx="25.79758"
     inkscape:cy="62.5"
     inkscape:window-x="65"
     inkscape:window-y="24"
     inkscape:window-maximized="1"
     inkscape:current-layer="svg3167" /><g
     id="g3279"><path
       d="M0,30v57h9V54h21v33h70V30H0z M88,76H43V54h45V76z"
       id="path3281" /><polygon
       points="9.774,13 0,22.274 0,28 100,28 100,22.449 89.537,13  "
       id="polygon3283" /></g><path
     style="fill:#c8beb7"
     d="m 0.08250825,58.484598 0,-28.465346 49.91749175,0 49.917492,0 0,28.465346 0,28.465347 -34.928493,0 -34.928493,0 0,-16.50165 0,-16.50165 -10.588559,0 -10.5885587,0 0,16.50165 0,16.50165 -4.40044,0 -4.40044005,0 0,-28.465347 z m 88.00880075,6.531904 0,-11.069857 -22.552255,0 -22.552255,0 0,11.069857 0,11.069857 22.552255,0 22.552255,0 0,-11.069857 z"
     id="path2984"
     inkscape:connector-curvature="0" /><path
     style="fill:#e3dedb"
     d="m 0.08250825,25.141432 0,-2.815113 4.84735975,-4.609174 4.8473597,-4.609175 39.8789883,5.63e-4 39.878988,5.62e-4 5.191144,4.689432 5.191144,4.689431 0,2.734294 0,2.734294 -49.917492,0 -49.91749175,0 0,-2.815114 z"
     id="path2986"
     inkscape:connector-curvature="0" /><path
     style="fill:#e3dedb"
     d="m 0.09253987,25.171892 0.0100316,-2.784653 4.82831113,-4.572333 4.8283112,-4.572332 39.8981052,0 39.898107,0 5.181043,4.6808 5.181043,4.6808 0,2.676186 0,2.676186 -49.917492,0 -49.91749175,0 0.01003162,-2.784654 z"
     id="path2988"
     inkscape:connector-curvature="0" /><path
     style="fill:#e3dedb"
     d="m 0.08250825,58.484598 0,-28.465346 49.91749175,0 49.917492,0 0,28.465346 0,28.465347 -34.928493,0 -34.928493,0 0,-16.50165 0,-16.50165 -10.588559,0 -10.5885587,0 0,16.50165 0,16.50165 -4.40044,0 -4.40044005,0 0,-28.465347 z m 88.00880075,6.531904 0,-11.069857 -22.552255,0 -22.552255,0 0,11.069857 0,11.069857 22.552255,0 22.552255,0 0,-11.069857 z"
     id="path2990"
     inkscape:connector-curvature="0" /><path
     style="fill:#e3dedb"
     d="m 0.08858386,25.171892 0.0060756,-2.784653 4.83423494,-4.572333 4.8342349,-4.572332 39.8994877,0 39.899488,0 5.177694,4.680187 5.177693,4.680187 0,2.676799 0,2.676799 -49.917492,0 -49.91749175,0 0.0060756,-2.784654 z"
     id="path2992"
     inkscape:connector-curvature="0" /><path
     style="fill:#848383;fill-opacity:1"
     d="m 0.08250825,58.484598 0,-28.465346 49.91749175,0 49.917492,0 0,28.465346 0,28.465347 -34.928493,0 -34.928493,0 0,-16.50165 0,-16.50165 -10.588559,0 -10.5885587,0 0,16.50165 0,16.50165 -4.40044,0 -4.40044005,0 0,-28.465347 z m 88.00880075,6.531904 0,-11.069857 -22.552255,0 -22.552255,0 0,11.069857 0,11.069857 22.552255,0 22.552255,0 0,-11.069857 z"
     id="path2994"
     inkscape:connector-curvature="0" /><path
     style="fill:#848383;fill-opacity:1"
     d="m 0.1650165,25.150915 0,-2.805631 4.7786029,-4.546843 4.7786028,-4.546844 39.9477448,0.0031 39.947745,0.0031 5.119971,4.633443 5.119972,4.633443 0.0024,2.715897 0.0024,2.715897 -49.848735,0 -49.8487345,0 0,-2.805631 z"
     id="path3764"
     inkscape:connector-curvature="0" /></svg>